<svg width="34" height="30" viewBox="0 0 34 30" fill="none" xmlns="http://www.w3.org/2000/svg">
<path d="M32.7398 14.8573L32.7336 14.9124V14.9678C32.7336 15.4539 32.3189 15.8483 31.859 15.8483H29.9844H28.98L28.9844 16.8526L29.0254 26.2332C29.0254 26.2338 29.0254 26.2345 29.0254 26.2351C29.0253 26.3444 29.0171 26.463 29.0022 26.5972L28.9961 26.6523V26.7077V27.6567C28.9961 28.3991 28.3952 29 27.6528 29H26.7155C26.6436 29 26.6245 28.9993 26.6127 28.9983L26.5319 28.9909L26.4509 28.9967C26.4107 28.9996 26.3647 29 26.2779 29C26.2773 29 26.2767 29 26.2761 29L24.3753 28.9941H24.3722H22.9662C22.2238 28.9941 21.6229 28.3932 21.6229 27.6509V26.2449V22.4956C21.6229 20.9064 20.3375 19.621 18.7483 19.621H14.999C13.4098 19.621 12.1244 20.9064 12.1244 22.4956V26.2449V27.6509C12.1244 28.3932 11.5235 28.9941 10.7811 28.9941H9.37512H7.50635C7.45735 28.9941 7.40274 28.9909 7.30926 28.9846L7.23442 28.9797L7.15967 28.9859C7.08232 28.9923 7.05356 28.9941 7.03183 28.9941H6.09451C5.35213 28.9941 4.75122 28.3932 4.75122 27.6509V21.0896L4.75129 21.0558L4.75161 21.0339L4.75178 21.0287L4.75708 20.981V20.9256V16.8424V15.8424H3.75708H1.88245C1.3823 15.8424 1.00781 15.472 1.00781 14.9619C1.00781 14.6989 1.0801 14.4927 1.27991 14.2843L16.2653 1.22249L16.2912 1.19999L16.3154 1.17577C16.3945 1.09662 16.4664 1.06047 16.54 1.03838C16.6257 1.01267 16.7349 1 16.8971 1C17.1385 1 17.3541 1.07171 17.4797 1.17225L32.429 14.3129L32.4307 14.3144C32.7347 14.5803 32.7517 14.7499 32.7398 14.8573Z" stroke="currentColor" stroke-width="2"/>
</svg>
