<svg width="30" height="32" viewBox="0 0 30 32" fill="none" xmlns="http://www.w3.org/2000/svg">
<path d="M27.2748 5.77526L26.504 6.41235C26.9752 6.98243 27.4047 7.58605 27.7875 8.2232L28.0709 8.71167C28.3529 9.22095 28.6045 9.74309 28.8235 10.2812L28.9783 10.7021C29.0271 10.8347 28.9947 11.0129 28.8506 11.1424L28.8506 11.1424L28.846 11.1466L26.1542 13.596L25.7671 13.9482L25.8358 14.467C25.8988 14.9419 25.9328 15.4264 25.9328 15.9146C25.9328 16.4029 25.8988 16.8873 25.8358 17.3623L25.7671 17.8811L26.1542 18.2333L28.846 20.6826L28.8459 20.6826L28.8506 20.6868C28.9947 20.8163 29.0271 20.9945 28.9783 21.1271L29.9168 21.4723M27.2748 5.77526L26.5057 6.41438C26.4193 6.31042 26.2449 6.24499 26.0549 6.30546L26.0545 6.30557L22.5919 7.40591L22.0939 7.56416L21.6796 7.24572C20.9152 6.65813 20.0718 6.16833 19.1732 5.79865L18.6888 5.59937L18.5768 5.0877L17.7999 1.5388C17.7553 1.33594 17.6152 1.22589 17.4843 1.20455L17.4808 1.20398C16.677 1.07002 15.8493 1 15.0031 1C14.1569 1 13.3315 1.07002 12.5324 1.20901L12.522 1.21082L12.522 1.21077C12.3911 1.2321 12.2511 1.34201 12.2064 1.5446C12.2064 1.54474 12.2063 1.54488 12.2063 1.54502L11.4294 5.09392L11.3174 5.60559L10.833 5.80487C9.93437 6.17455 9.09106 6.66435 8.32663 7.25194L7.91234 7.57038L7.41435 7.41213L3.95168 6.31179L3.95133 6.31167C3.75384 6.24884 3.58595 6.31644 3.50493 6.4153L3.50225 6.41857L3.50225 6.41856C3.03107 6.98863 2.60149 7.59225 2.21878 8.22939L1.93528 8.71797C1.58113 9.35754 1.27487 10.0174 1.0211 10.7037L0.0831636 10.3569L1.02169 10.7021C0.972917 10.8347 1.00526 11.0129 1.1494 11.1424L1.15405 11.1466L1.15404 11.1466L3.84585 13.596L4.23292 13.9482L4.16417 14.467C4.10122 14.9419 4.06715 15.4264 4.06715 15.9146C4.06715 16.4026 4.10119 16.8876 4.16437 17.37L4.23219 17.8879L3.84585 18.2395L1.15404 20.6888L1.14941 20.6931L1.1494 20.693C1.00549 20.8224 0.973017 21.0001 1.02146 21.1327C1.27517 21.8187 1.5813 22.4782 1.93528 23.1175L2.21877 23.606C2.60149 24.2432 3.03106 24.8468 3.50225 25.4169L2.73145 26.054M27.2748 5.77526C26.908 5.33388 26.2987 5.17846 25.7517 5.35253L28.6486 7.71486C28.2383 7.03102 27.7783 6.38449 27.2748 5.77526ZM2.73145 26.054L3.50056 25.4148C3.58681 25.5186 3.76069 25.584 3.95037 25.5241C3.95069 25.524 3.95101 25.5239 3.95133 25.5238L7.40609 24.4177L7.90504 24.258L8.32041 24.5773C9.08484 25.1649 9.92815 25.6547 10.8268 26.0244L11.3112 26.2236L11.4232 26.7353L12.2001 30.2842C12.2001 30.2845 12.2002 30.2847 12.2002 30.285C12.2002 30.285 12.2003 30.285 12.2003 30.285C12.245 30.4874 12.385 30.5971 12.5157 30.6185L12.5192 30.619C13.323 30.753 14.1507 30.823 14.9969 30.823C15.8431 30.823 16.6708 30.753 17.4746 30.619L17.478 30.6184C17.6089 30.5971 17.7491 30.4871 17.7937 30.2842L18.5706 26.7353L18.6826 26.2236L19.167 26.0244C20.0656 25.6547 20.9089 25.1649 21.6734 24.5773L22.0877 24.2588L22.5856 24.4171L26.0483 25.5174L26.0487 25.5175C26.2462 25.5804 26.4141 25.5128 26.4951 25.4139L26.4977 25.4107C26.9689 24.8406 27.3985 24.237 27.7812 23.5999L28.0647 23.1112C28.4189 22.4717 28.7251 21.8118 28.9789 21.1255L29.9168 21.4723M2.73145 26.054C3.09824 26.4953 3.70747 26.6508 4.25453 26.4767L1.35758 24.1144C1.76787 24.7982 2.22791 25.4447 2.73145 26.054ZM29.9168 21.4723C30.1158 20.9314 29.9479 20.3284 29.519 19.943L28.9346 23.6046C29.3138 22.9208 29.6433 22.2121 29.9168 21.4723ZM15.0031 21.8879C16.5873 21.8879 18.1067 21.2586 19.2269 20.1384C20.3471 19.0182 20.9764 17.4988 20.9764 15.9146C20.9764 14.3304 20.3471 12.8111 19.2269 11.6908C18.1067 10.5706 16.5873 9.94129 15.0031 9.94129C13.4189 9.94129 11.8996 10.5706 10.7793 11.6908C9.65912 12.8111 9.02979 14.3304 9.02979 15.9146C9.02979 17.4988 9.65912 19.0182 10.7793 20.1384C11.8996 21.2586 13.4189 21.8879 15.0031 21.8879Z" stroke="currentColor" stroke-width="2"/>
</svg>
